# xmcd
#
# Track frame offsets:
#   182
#   21585
#   38877
#   59027
#   72547
#   85042
#   98285
#   111300
#   121622
#   133290
#   152230
#   164167
#   175882
#   189060
#   201925
#
# Disc length: 2920 seconds
#
# Revision: 0
# Processed by: cddbd v1.5PL3 Copyright (c) Steve Scherf et al.
# Submitted via: Media_Universe 3.0
#
DISCID=d50b660f
DTITLE=Varios - Lo Mejor Del Country II CD2
DYEAR=1994
DGENRE=Country
TTITLE0=Willie Nelson and Carlos Santana/They All Went To Mexico
TTITLE1=Lynn Anderson/Close To You
TTITLE2=James TAylor/You've Got A Friend
TTITLE3=Jim Croce/Bad Bad Leroy Brown
TTITLE4=Kenny Rogers/Ruben James
TTITLE5=Tammy Wynette/Divorce
TTITLE6=Dr. Hook/Cover Of The Rolling Stone
TTITLE7=Patsy Cline/I Love You, Honey
TTITLE8=Sutherland Brothers and Quiver/Arms Of Mary
TTITLE9=Ray Charles/I Can't Stop Loving You
TTITLE10=Telly SAvallas/Some Broken Hearts Never Mend
TTITLE11=The Everly Brothers/Let It Be Me
TTITLE12=Charly Rich/Behind Closed Doors
TTITLE13=Olivia Newton John/If Not For You
TTITLE14=Don McClean/Cryin'
EXTD=
EXTT0=
EXTT1=
EXTT2=
EXTT3=
EXTT4=
EXTT5=
EXTT6=
EXTT7=
EXTT8=
EXTT9=
EXTT10=
EXTT11=
EXTT12=
EXTT13=
EXTT14=
PLAYORDER=
